PathFileType	4	(X/Y/Z)	C:\Users\86182\Documents\cortex\Trimmed_M3_L3.trc
DataRate	CameraRate	NumFrames	NumMarkers	Units	OrigDataRate	OrigDataStartFrame	OrigNumFrames
100.00	100.00	       84	2	mm	100.00	541	       901
Frame#	Time	gripper			box			
		X1	Y1	Z1	X2	Y2	Z2	

541	5.400	273.45270	149.79854	292.87048	274.78903	148.07790	157.15628	
542	5.410	273.44553	149.79863	292.87509	274.79767	148.07950	157.15788	
543	5.420	273.44138	149.80336	292.87076	274.83038	148.06429	157.13347	
544	5.430	273.45270	149.79854	292.87048	274.83472	148.06511	157.13426	
545	5.440	273.47644	149.80048	292.87769	274.79907	148.06401	157.15546	
546	5.450	273.45499	149.79756	292.87039	274.82764	148.05852	157.14183	
547	5.460	273.50024	149.80429	292.88614	274.80573	148.06506	157.14966	
548	5.470	273.46411	149.79369	292.87018	274.82898	148.06224	157.14142	
549	5.480	273.43686	149.80527	292.87088	274.79843	148.06880	157.15524	
550	5.490	273.44998	149.80998	292.88519	274.79227	148.07655	157.17418	
551	5.500	273.41806	149.80737	292.88019	274.78638	148.07436	157.15514	
552	5.510	273.44366	149.80238	292.87070	274.81229	148.07040	157.13916	
553	5.520	273.44211	149.81160	292.87946	274.76797	148.06877	157.17163	
554	5.530	273.44138	149.80336	292.87076	274.76932	148.06798	157.17160	
555	5.540	273.44220	149.80078	292.87408	274.77374	148.07396	157.16183	
556	5.550	273.45270	149.79854	292.87048	274.78546	148.08577	157.14806	
557	5.560	273.43317	149.80463	292.87430	274.77222	148.08588	157.18689	
558	5.570	273.47247	149.79541	292.87500	274.77438	148.07852	157.17508	
559	5.580	273.48352	149.80142	292.88010	274.81360	148.06717	157.15596	
560	5.590	273.47110	149.79271	292.87131	274.79996	148.07083	157.14722	
561	5.600	273.47458	149.80725	292.88162	274.81152	148.06361	157.14728	
562	5.610	273.47214	149.80626	292.88040	274.82312	148.06929	157.13292	
563	5.620	273.46460	149.79951	292.87405	274.84039	148.06499	157.12578	
564	5.630	273.46182	149.79466	292.87024	274.80865	148.07079	157.14125	
565	5.640	273.43912	149.80432	292.87082	274.79492	148.07474	157.14632	
566	5.650	273.43011	149.80815	292.87103	274.78769	148.07550	157.15050	
567	5.660	273.46866	149.79173	292.87006	274.79471	148.07758	157.14456	
568	5.670	273.45490	149.79863	292.87747	274.77524	148.07593	157.15862	
569	5.680	273.43417	149.80345	292.87540	274.80402	148.06767	157.16672	
570	5.690	273.43011	149.80815	292.87103	274.78894	148.06636	157.15984	
571	5.700	273.43768	149.80270	292.87418	274.77573	148.07697	157.15836	
572	5.710	273.42502	149.80588	292.87781	274.79257	148.06726	157.15631	
573	5.720	273.43704	149.80827	292.87921	274.79037	148.06837	157.15660	
574	5.730	273.44366	149.80238	292.87070	274.78986	148.08679	157.19208	
575	5.740	273.43665	149.80388	292.87311	274.82544	148.05960	157.14215	
576	5.750	273.45499	149.79756	292.87039	274.81339	148.08202	157.16275	
577	5.760	273.45044	149.79950	292.87051	274.79727	148.07626	157.15022	
578	5.770	273.45044	149.79950	292.87051	274.81335	148.07776	157.16753	
579	5.780	273.45322	149.80435	292.87436	274.80374	148.08998	157.18347	
580	5.790	273.44589	149.80144	292.87064	274.80981	148.07512	157.16829	
581	5.800	273.45105	149.79552	292.87610	274.81409	148.08023	157.16425	
582	5.810	273.43234	149.80719	292.87100	274.80469	148.08498	157.17007	
583	5.820	273.45078	149.80392	292.87665	274.84076	148.07593	157.17358	
584	5.830	273.44403	149.79701	292.87848	274.79266	148.07158	157.15143	
585	5.840	273.46866	149.79173	292.87006	274.80811	148.08197	157.18025	
586	5.850	273.45728	149.79660	292.87036	274.79282	148.08232	157.18585	
587	5.860	273.44672	149.79884	292.87396	274.78448	148.08334	157.17198	
588	5.870	273.44901	149.79788	292.87390	274.79700	148.06941	157.15085	
589	5.880	273.39655	149.81433	292.88403	274.79132	148.07512	157.14841	
590	5.890	273.43338	149.80602	292.87207	274.79251	148.07326	157.15906	
591	5.900	273.43640	149.80249	292.87534	274.77808	148.07903	157.16260	
592	5.910	273.45270	149.79854	292.87048	274.80420	148.07329	157.15562	
593	5.920	273.44919	149.79929	292.87167	274.77310	148.07700	157.15891	
594	5.930	273.47125	149.80994	292.88412	274.79132	148.07512	157.14841	
595	5.940	273.43030	149.80139	292.88101	274.79840	148.06581	157.15388	
596	5.950	273.46118	149.80273	292.88010	274.84238	148.06816	157.12085	
597	5.960	273.41748	149.81131	292.87469	274.80582	148.07362	157.14005	
598	5.970	273.45044	149.79950	292.87051	274.80063	148.06905	157.14874	
599	5.980	273.43188	149.80547	292.88248	274.78387	148.07161	157.15747	
600	5.990	273.45148	149.79831	292.87161	274.79404	148.07988	157.15997	
601	6.000	273.45044	149.79950	292.87051	274.84641	148.05922	157.12807	
602	6.010	273.45813	149.79399	292.87366	274.77310	148.07700	157.15891	
603	6.020	273.45935	149.79422	292.87253	274.80640	148.06926	157.15393	
604	6.030	273.48328	149.79756	292.87750	274.80060	148.07367	157.15771	
605	6.040	273.45459	149.79475	292.87488	274.80426	148.06868	157.14664	
606	6.050	273.46161	149.79326	292.87250	274.77310	148.07700	157.15891	
607	6.060	273.41949	149.80898	292.87686	274.79132	148.07512	157.14841	
608	6.070	273.43094	149.80559	292.87436	274.78738	148.07887	157.16570	
609	6.080	273.44901	149.79788	292.87390	274.79855	148.07437	157.14423	
610	6.090	273.43686	149.80527	292.87088	274.80222	148.07399	157.14214	
611	6.100	273.44138	149.80336	292.87076	274.78018	148.08255	157.17123	
612	6.110	273.41992	149.81175	292.87241	274.77374	148.07396	157.16183	
613	6.120	273.46866	149.79173	292.87006	274.80209	148.06544	157.15176	
614	6.130	273.41882	149.80481	292.88351	274.80356	148.06616	157.14995	
615	6.140	273.46161	149.79326	292.87250	274.77939	148.07455	157.17604	
616	6.150	273.43353	149.79927	292.88208	274.77155	148.07950	157.16658	
617	6.160	273.42947	149.80397	292.87772	274.78403	148.07587	157.15260	
618	6.170	273.49542	149.80238	292.88370	274.79340	148.07867	157.15710	
619	6.180	273.45953	149.79562	292.87030	274.82709	148.07399	157.17606	
620	6.190	273.47110	149.79271	292.87131	274.78619	148.07480	157.15230	
621	6.200	273.50101	149.81587	292.89386	274.83893	148.06595	157.13513	
622	6.210	273.45023	149.79810	292.87277	274.83539	148.06464	157.12962	
623	6.220	273.45499	149.79756	292.87039	274.81659	148.07251	157.13383	
624	6.230	273.46732	149.80435	292.87790	274.82755	148.06285	157.13704	
